<svg id="Livello_1" data-name="Livello 1" xmlns="http://www.w3.org/2000/svg" viewBox="0 0 229 229" width="20" height="20"><defs><style>.cls-1{fill:#3eb39e;}</style></defs><path class="cls-1" d="M0,123.12V105.28a7.88,7.88,0,0,0,.46-1.37c.74-4.69,1.21-9.44,2.23-14.06A114,114,0,0,1,97.92,1.19c2.6-.38,5.2-.79,7.8-1.19h16.51a7.45,7.45,0,0,0,1.4.42,110.38,110.38,0,0,1,35.31,8.7,114.24,114.24,0,0,1,61.37,147.3C199.9,208.26,143.77,238,89.45,225.7A114.15,114.15,0,0,1,1.2,130.46C.84,128,.4,125.57,0,123.12ZM114.34,21.42C63.3,21.3,21.53,63,21.42,114.06S62.94,206.87,114.06,207s92.81-41.52,92.92-92.64S165.46,21.53,114.34,21.42Z"/><path class="cls-1" d="M107,138.2c.6-1.06,1-1.82,1.47-2.59q18-32.39,36.06-64.8c1.33-2.38,2.88-4.5,5.45-5.66a9.61,9.61,0,0,1,10.93,1.9,10.34,10.34,0,0,1,2.56,11.47,20,20,0,0,1-1.35,2.8c-14.12,25.36-28.46,50.6-42.23,76.15-4.41,8.19-16.27,8.76-21.39,2.37-9.85-12.29-20-24.33-30-36.54-3-3.67-2.46-9,1-12.86,3.22-3.59,7.71-4.35,11.85-1.7a22.17,22.17,0,0,1,5,4.42c6.22,7.39,12.3,14.89,18.44,22.35C105.35,136.31,106,137.1,107,138.2Z"/></svg>