<svg id="Livello_1" data-name="Livello 1" xmlns="http://www.w3.org/2000/svg" viewBox="0 0 299.78 299.87" width="20" height="20"><defs><style>.cls-1{fill:#ff4848;}</style></defs><path class="cls-1" d="M299.78,150.26C299,233.7,231.29,300.85,149,299.86,65.78,298.86-.77,231.47,0,149,.79,65.76,68.45-.88,151.24,0,233.67.89,300.57,68.57,299.78,150.26Zm-24-.4a125.9,125.9,0,1,0-251.8.08c0,69.48,56.49,126,125.89,126S275.9,219.17,275.79,149.86Z"/><path class="cls-1" d="M150.46,166.75c-1.51,1.45-2.51,2.37-3.47,3.33Q126,191,105.08,212c-4.19,4.17-9.24,5.12-14,2.89-4.53-2.12-7.71-7-6.7-11.86a17.6,17.6,0,0,1,4.37-8.35c13.61-14,27.48-27.67,41.29-41.44a31.55,31.55,0,0,1,3.5-2.63c-1.49-1.6-2.38-2.6-3.32-3.55C116.12,133,102,119,88,104.82c-7-7-4.11-18.13,5.19-20.44,4.82-1.2,8.76.49,12.2,4Q126.19,109.2,147.05,130c1,.95,2,1.85,3.08,2.91,1.13-1.08,2.13-2,3.08-2.94q21.09-21.08,42.18-42.14c4.09-4.07,9.31-4.88,14.1-2.48,4.5,2.26,7.52,7.17,6.36,12a18.48,18.48,0,0,1-4.57,8.27c-13.54,13.86-27.31,27.49-41,41.17-1,1-2.08,1.76-3.34,2.81,1.32,1.41,2.2,2.42,3.15,3.36,14,14.06,28.15,28.06,42.12,42.2,7,7,4.08,18.11-5.22,20.44-4.82,1.2-8.75-.51-12.19-4q-20.62-20.74-41.34-41.39C152.47,169.27,151.65,168.15,150.46,166.75Z"/></svg>